<svg width="37" height="39" viewBox="0 0 37 39" fill="none" xmlns="http://www.w3.org/2000/svg">
<path d="M11.0644 4.63509C11.1415 4.47007 11.2204 4.30506 11.2998 4.14065C11.773 3.16512 12.2917 2.01365 11.7906 1.05208C11.2167 -0.0484279 9.66909 -0.162483 8.46909 0.152987C6.34392 0.711733 5.16394 2.0816 4.08224 3.9089C2.87921 5.94065 1.85636 8.08584 1.1326 10.336C0.534417 12.1948 0.144326 14.1259 0.0266313 16.0769C-0.152944 19.0424 0.516823 22.0411 3.84867 22.7236C5.04503 22.9687 6.2881 22.8517 7.48689 22.6181C12.2165 21.699 16.7817 19.1206 20.1688 15.7172C20.4873 15.3969 20.8058 15.0535 20.9484 14.6246C21.2147 13.825 20.7682 12.9125 20.0705 12.4393C19.3728 11.9661 18.4853 11.8618 17.6438 11.9115C15.3894 12.0462 13.4323 13.2013 11.551 14.3473C10.82 14.7926 9.61449 15.8391 8.73664 15.8816C7.84361 15.9247 8.06262 14.0337 8.18032 13.4397C8.38113 12.4278 8.62319 11.4238 8.90469 10.4306C9.46768 8.44499 10.1902 6.50425 11.0644 4.63448V4.63509Z" fill="#CAABD5"></path>
<path d="M25.5744 2.7057C25.4616 2.57648 25.3354 2.45818 25.194 2.35505C24.5813 1.90732 23.6804 1.75383 22.9378 1.81996C20.5499 2.03351 20.4231 4.88427 20.7034 6.72309C21.1281 9.5059 21.8707 12.1862 23.9728 14.2064C26.7265 16.8521 32.4893 18.0375 34.4003 13.7933C34.8735 12.7425 35.0452 11.5825 35.1313 10.4335C35.3582 7.40742 34.9056 0.0108615 30.0808 1.23877C29.812 1.30732 29.5402 1.41713 29.3637 1.63068C28.5968 2.55767 29.6549 4.87153 29.8326 5.89013C30.068 7.23512 30.2209 8.57951 29.9631 9.93361C29.8751 10.3965 29.7016 10.9091 29.2715 11.1021C28.865 11.2847 28.3675 11.0936 28.0672 10.7641C27.7669 10.4347 27.6219 9.99609 27.4951 9.56839C27.0165 7.95585 26.7222 6.31844 26.411 4.67132C26.2775 3.96516 26.0379 3.23776 25.5738 2.7051L25.5744 2.7057Z" fill="#CAABD5"></path>
<path d="M11.2306 38.1987C10.5499 37.8038 9.93289 37.3002 9.33835 36.7821C6.84735 34.6102 4.64392 32.1393 2.94523 29.297C2.46353 28.4913 2.00792 27.6092 2.04675 26.6707C2.07648 25.9421 2.35009 25.2784 3.08537 25.0133C3.63805 24.8137 4.25261 24.8877 4.82046 25.0394C6.47971 25.4829 7.94543 26.5342 9.27951 27.5801C10.6924 28.6873 11.9598 30.0001 13.0397 31.4331C12.9869 31.3627 13.3582 30.6287 13.4012 30.5201C13.5402 30.1688 13.6791 29.8181 13.818 29.4669C14.6364 27.3993 15.3723 25.2839 16.2684 23.2491C16.5772 22.5484 16.926 21.8495 17.4569 21.2974C18.1745 20.5506 19.3794 20.092 20.3665 20.5767C21.1424 20.9577 21.456 21.9296 21.4839 22.734C21.5222 23.8297 21.3681 25.0224 21.2043 26.1053C21.0229 27.3029 20.7559 28.4871 20.4235 29.6519C19.8453 31.6727 19.1325 33.6857 18.0271 35.4814C17.8336 35.7963 17.6285 36.1045 17.412 36.4042C16.7695 37.2923 15.9863 38.1374 14.9901 38.6282C13.8951 39.1682 12.74 38.9534 11.6734 38.4347C11.523 38.3613 11.3756 38.2824 11.2312 38.1987H11.2306Z" fill="#CAABD5"></path>
<path d="M32.0294 18.4264C29.8114 18.1031 27.7111 19.4614 26.3036 21.037C23.2242 24.4847 19.4276 34.3904 26.6877 35.7403C30.4399 36.438 34.032 32.5771 35.6142 29.6196C36.1196 28.6756 36.4739 27.5265 36.6322 26.3277C37.0891 22.8679 35.9145 18.9937 32.0294 18.4264ZM32.5833 27.8432C31.9542 29.446 30.6729 30.896 29.0191 31.2436C27.4084 31.5821 26.3637 30.535 26.3048 28.968C26.2387 27.2074 27.1135 25.1799 28.2765 23.8786C28.959 23.1142 29.9073 22.4353 30.9228 22.5718C32.556 22.7915 33.1093 24.711 32.9952 26.1136C32.9491 26.6808 32.8078 27.2717 32.5833 27.8432Z" fill="#CAABD5"></path>
</svg>