<svg width="24" height="24" viewBox="0 0 24 24" fill="none" xmlns="http://www.w3.org/2000/svg">
<path d="M12 2C6.477 2 2 6.477 2 12C2 17.523 6.477 22 12 22C17.523 22 22 17.523 22 12C22 6.477 17.523 2 12 2Z" stroke="#585B61" stroke-width="1.90476" stroke-linecap="round" stroke-linejoin="round"></path>
<path d="M4.27097 18.3462C4.27097 18.3462 6.49997 15.5002 12 15.5002C17.5 15.5002 19.73 18.3462 19.73 18.3462M12 12.0002C12.7956 12.0002 13.5587 11.6842 14.1213 11.1216C14.6839 10.559 15 9.79589 15 9.00024C15 8.20459 14.6839 7.44153 14.1213 6.87892C13.5587 6.31631 12.7956 6.00024 12 6.00024C11.2043 6.00024 10.4413 6.31631 9.87865 6.87892C9.31604 7.44153 8.99997 8.20459 8.99997 9.00024C8.99997 9.79589 9.31604 10.559 9.87865 11.1216C10.4413 11.6842 11.2043 12.0002 12 12.0002Z" stroke="#585B61" stroke-width="1.90476" stroke-linecap="round" stroke-linejoin="round"></path>
</svg>