<svg width="24" height="24" viewBox="0 0 24 24" fill="none" xmlns="http://www.w3.org/2000/svg">
<path d="M1.50548 14.7773C1.5219 14.7499 1.54381 14.7225 1.55476 14.6951C1.71904 14.3228 2.04211 14.1421 2.42543 14.2023C2.77588 14.2571 3.01682 14.5528 3.06611 14.947C3.16467 15.7301 3.22491 16.5296 3.40014 17.2962C3.78892 19.0156 5.43717 20.4558 7.18398 20.6803C7.85204 20.7679 8.52558 20.8446 9.19363 20.9212C9.6098 20.965 9.9055 21.2553 9.93836 21.6605C9.96574 22.0328 9.71385 22.3504 9.31411 22.449C9.30315 22.449 9.30315 22.4709 9.2922 22.4819H8.71723C8.6789 22.4654 8.64057 22.4435 8.59676 22.4381C7.93965 22.3504 7.27707 22.3066 6.63092 22.1643C4.39127 21.6714 2.89088 20.3025 2.03664 18.1997C1.76832 17.5426 1.71904 16.8362 1.62047 16.1408C1.58214 15.8779 1.53833 15.6096 1.5 15.3468C1.5 15.1551 1.5 14.9635 1.5 14.7718L1.50548 14.7773Z" fill="#585B61"></path>
<path d="M1.50537 8.62792C1.5437 8.36508 1.58203 8.09676 1.63132 7.83392C1.75179 7.19324 1.79012 6.5197 2.00915 5.91188C2.80316 3.72152 4.34189 2.30874 6.64176 1.81591C7.44672 1.64068 8.27358 1.58592 9.09496 1.50378C9.54399 1.4545 9.91087 1.79401 9.93825 2.23755C9.96563 2.65372 9.64255 3.00418 9.19353 3.05894C8.3831 3.15751 7.55624 3.21774 6.76223 3.38749C5.0209 3.75438 3.55883 5.36977 3.30694 7.12753C3.21385 7.76273 3.13719 8.39794 3.066 9.03862C3.02219 9.43288 2.77578 9.72858 2.42532 9.78334C2.03653 9.84357 1.71893 9.66287 1.55465 9.29051C1.5437 9.26313 1.5218 9.23575 1.50537 9.20837C1.50537 9.01671 1.50537 8.82506 1.50537 8.6334V8.62792Z" fill="#585B61"></path>
<path d="M14.6257 22.482C14.5819 22.4546 14.538 22.4217 14.4942 22.3998C14.1712 22.2301 14.0124 21.8961 14.0835 21.5456C14.1547 21.1951 14.4395 20.9706 14.8064 20.9268C15.6332 20.8283 16.4656 20.768 17.276 20.5928C18.99 20.2259 20.4465 18.605 20.693 16.8692C20.786 16.2121 20.8572 15.555 20.9394 14.8979C20.9887 14.4762 21.3282 14.1805 21.7498 14.1969C22.1495 14.2134 22.5164 14.531 22.4836 14.9252C22.385 16.1464 22.3522 17.3894 21.8265 18.5284C20.9339 20.4559 19.4718 21.7263 17.3636 22.1698C16.701 22.3122 16.0111 22.356 15.3375 22.4436C15.2882 22.4491 15.2444 22.471 15.1952 22.482H14.6202H14.6257Z" fill="#585B61"></path>
<path d="M11.488 8.33163C11.4387 8.86827 11.4058 9.39944 11.3401 9.92512C11.2525 10.6096 10.6337 11.2229 9.94926 11.327C8.88146 11.4858 7.81366 11.4858 6.74586 11.327C6.0778 11.2284 5.46997 10.6315 5.36045 9.96893C5.1907 8.92851 5.1907 7.88809 5.33308 6.84767C5.44807 6.00438 6.01209 5.43489 6.85537 5.31989C7.89579 5.17752 8.93622 5.17752 9.97664 5.34727C10.6502 5.45679 11.2525 6.05366 11.3401 6.7272C11.4113 7.25836 11.4442 7.80047 11.4935 8.33711L11.488 8.33163ZM9.92188 8.33163C9.88902 7.92642 9.85617 7.5212 9.82331 7.11051C9.81236 6.95171 9.74665 6.87505 9.57142 6.85314C8.73908 6.7491 7.91222 6.7491 7.08536 6.85314C6.94299 6.86957 6.88823 6.93528 6.8718 7.07218C6.76228 7.90451 6.76228 8.73137 6.8718 9.55824C6.89371 9.72251 6.96489 9.78275 7.11274 9.79917C7.93413 9.90322 8.76099 9.90322 9.58237 9.79917C9.7357 9.77727 9.81236 9.70608 9.82331 9.55276C9.85617 9.14754 9.88902 8.73685 9.92188 8.32616V8.33163Z" fill="#585B61"></path>
<path d="M12.512 8.32647C12.5612 7.78983 12.5941 7.24772 12.6653 6.71656C12.7584 6.04302 13.3607 5.45163 14.0343 5.34211C15.0747 5.17236 16.1151 5.17236 17.1555 5.3202C17.9933 5.44067 18.5519 5.99922 18.6669 6.83703C18.8147 7.87745 18.8147 8.91787 18.645 9.95829C18.5354 10.6318 17.9441 11.2232 17.2705 11.3273C16.1972 11.4915 15.1185 11.4915 14.0452 11.3273C13.3662 11.2232 12.7529 10.6154 12.6653 9.93639C12.5941 9.40522 12.5612 8.86311 12.512 8.32647ZM15.6606 9.90901C16.0713 9.87615 16.4765 9.8433 16.8872 9.81044C17.0351 9.79949 17.1117 9.73925 17.1336 9.5695C17.2377 8.73716 17.2431 7.9103 17.1336 7.08344C17.1117 6.9356 17.046 6.87536 16.9036 6.85893C16.0822 6.74941 15.2609 6.74941 14.434 6.85893C14.2643 6.88084 14.1985 6.9575 14.1821 7.1163C14.0781 7.93221 14.0781 8.74812 14.1821 9.56402C14.204 9.7283 14.2807 9.80496 14.445 9.81592C14.8502 9.8433 15.2609 9.88163 15.6716 9.91448L15.6606 9.90901Z" fill="#585B61"></path>
<path d="M11.477 15.8013C11.4387 16.1901 11.4058 16.7213 11.3401 17.247C11.2525 17.9205 10.6502 18.5174 9.98211 18.6324C8.93621 18.8021 7.88484 18.8021 6.83895 18.6543C6.00661 18.5338 5.44807 17.9698 5.33308 17.132C5.1907 16.0916 5.1907 15.0511 5.36045 14.0107C5.46997 13.3372 6.08327 12.7458 6.76776 12.6472C7.82461 12.4939 8.87598 12.4939 9.93283 12.6472C10.6283 12.7458 11.247 13.3591 11.3511 14.0491C11.3839 14.2626 11.4168 14.4816 11.4277 14.7007C11.4497 15.0183 11.4606 15.3414 11.4825 15.8068L11.477 15.8013ZM9.92188 15.6425C9.88902 15.2373 9.85617 14.8321 9.82331 14.4214C9.81236 14.2736 9.75212 14.1859 9.58785 14.164C8.75551 14.06 7.92865 14.0545 7.09631 14.164C6.95942 14.1805 6.88275 14.2407 6.86633 14.394C6.75681 15.2264 6.75681 16.0532 6.86633 16.8801C6.88823 17.0279 6.94299 17.0936 7.09084 17.1101C7.92317 17.2196 8.75003 17.2196 9.5769 17.1101C9.74117 17.0882 9.80141 17.0115 9.81236 16.8637C9.84521 16.4584 9.87807 16.0478 9.91092 15.6371L9.92188 15.6425Z" fill="#585B61"></path>
<path d="M15.6606 12.4995C16.1973 12.5488 16.7339 12.5816 17.2706 12.6528C17.9934 12.7514 18.5683 13.3757 18.6724 14.1587C18.8148 15.1991 18.8148 16.2396 18.645 17.28C18.5355 17.9371 17.955 18.523 17.2979 18.627C16.2028 18.8023 15.1076 18.8023 14.0124 18.627C13.3443 18.5175 12.7529 17.9042 12.6544 17.2362C12.4956 16.1738 12.4956 15.117 12.6544 14.0547C12.7529 13.3647 13.3662 12.735 14.0617 12.6474C14.5874 12.5816 15.1185 12.5488 15.6552 12.4995H15.6606ZM15.6606 14.0656C15.2554 14.0985 14.8502 14.1313 14.4395 14.1642C14.2807 14.1751 14.1986 14.2518 14.1767 14.4161C14.0726 15.2375 14.0726 16.0643 14.1767 16.8857C14.1931 17.0226 14.2479 17.0993 14.4067 17.1212C15.2445 17.2307 16.0768 17.2307 16.9146 17.1212C17.057 17.1047 17.1118 17.039 17.1282 16.9021C17.2377 16.0807 17.2377 15.2594 17.1337 14.4325C17.1118 14.2518 17.0351 14.1806 16.8653 14.1697C16.4656 14.1423 16.0659 14.1039 15.6552 14.0711L15.6606 14.0656Z" fill="#585B61"></path>
<path d="M22.4944 8.82476C22.4999 9.41616 22.1878 9.76114 21.7771 9.78304C21.3335 9.81042 20.994 9.50377 20.9393 9.0657C20.8407 8.26622 20.7805 7.46126 20.6052 6.67821C20.2219 4.99163 18.6175 3.55695 16.9035 3.30506C16.2026 3.20102 15.4962 3.12983 14.7898 3.05317C14.3737 3.00936 14.0506 2.6589 14.067 2.25369C14.0834 1.84299 14.412 1.47063 14.8117 1.50349C16.0548 1.60753 17.3197 1.62396 18.4806 2.14417C20.5833 3.0915 21.903 4.67951 22.2589 6.99581C22.363 7.6584 22.4342 8.32098 22.4999 8.81929L22.4944 8.82476Z" fill="#585B61"></path>
</svg>